{
  "accessors": [
    {
      "bufferView": 0,
      "componentType": 5125,
      "count": 2091,
      "max": [
        414.0
      ],
      "min": [
        0.0
      ],
      "type": "SCALAR"
    },
    {
      "bufferView": 0,
      "byteOffset": 8364,
      "componentType": 5125,
      "count": 2091,
      "max": [
        829.0
      ],
      "min": [
        415.0
      ],
      "type": "SCALAR"
    },
    {
      "bufferView": 0,
      "byteOffset": 16728,
      "componentType": 5125,
      "count": 9432,
      "max": [
        2597.0
      ],
      "min": [
        830.0
      ],
      "type": "SCALAR"
    },
    {
      "bufferView": 0,
      "byteOffset": 54456,
      "componentType": 5125,
      "count": 1770,
      "max": [
        3488.0
      ],
      "min": [
        2598.0
      ],
      "type": "SCALAR"
    },
    {
      "bufferView": 0,
      "byteOffset": 61536,
      "componentType": 5125,
      "count": 1764,
      "max": [
        3831.0
      ],
      "min": [
        3489.0
      ],
      "type": "SCALAR"
    },
    {
      "bufferView": 0,
      "byteOffset": 68592,
      "componentType": 5125,
      "count": 1764,
      "max": [
        4174.0
      ],
      "min": [
        3832.0
      ],
      "type": "SCALAR"
    },
    {
      "bufferView": 0,
      "byteOffset": 75648,
      "componentType": 5125,
      "count": 6912,
      "max": [
        5487.0
      ],
      "min": [
        4175.0
      ],
      "type": "SCALAR"
    },
    {
      "bufferView": 0,
      "byteOffset": 103296,
      "componentType": 5125,
      "count": 1308,
      "max": [
        6130.0
      ],
      "min": [
        5488.0
      ],
      "type": "SCALAR"
    },
    {
      "bufferView": 0,
      "byteOffset": 108528,
      "componentType": 5125,
      "count": 115278,
      "max": [
        25596.0
      ],
      "min": [
        6131.0
      ],
      "type": "SCALAR"
    },
    {
      "bufferView": 0,
      "byteOffset": 569640,
      "componentType": 5125,
      "count": 115278,
      "max": [
        45062.0
      ],
      "min": [
        25597.0
      ],
      "type": "SCALAR"
    },
    {
      "bufferView": 0,
      "byteOffset": 1030752,
      "componentType": 5125,
      "count": 18144,
      "max": [
        48660.0
      ],
      "min": [
        45063.0
      ],
      "type": "SCALAR"
    },
    {
      "bufferView": 0,
      "byteOffset": 1103328,
      "componentType": 5125,
      "count": 753,
      "max": [
        49043.0
      ],
      "min": [
        48661.0
      ],
      "type": "SCALAR"
    },
    {
      "bufferView": 0,
      "byteOffset": 1106340,
      "componentType": 5125,
      "count": 753,
      "max": [
        49428.0
      ],
      "min": [
        49044.0
      ],
      "type": "SCALAR"
    },
    {
      "bufferView": 0,
      "byteOffset": 1109352,
      "componentType": 5125,
      "count": 2520,
      "max": [
        50719.0
      ],
      "min": [
        49429.0
      ],
      "type": "SCALAR"
    },
    {
      "bufferView": 0,
      "byteOffset": 1119432,
      "componentType": 5125,
      "count": 2514,
      "max": [
        52009.0
      ],
      "min": [
        50720.0
      ],
      "type": "SCALAR"
    },
    {
      "bufferView": 0,
      "byteOffset": 1129488,
      "componentType": 5125,
      "count": 1812,
      "max": [
        52889.0
      ],
      "min": [
        52010.0
      ],
      "type": "SCALAR"
    },
    {
      "bufferView": 0,
      "byteOffset": 1136736,
      "componentType": 5125,
      "count": 1716,
      "max": [
        53742.0
      ],
      "min": [
        52890.0
      ],
      "type": "SCALAR"
    },
    {
      "bufferView": 0,
      "byteOffset": 1143600,
      "componentType": 5125,
      "count": 1992,
      "max": [
        54685.0
      ],
      "min": [
        53743.0
      ],
      "type": "SCALAR"
    },
    {
      "bufferView": 0,
      "byteOffset": 1151568,
      "componentType": 5125,
      "count": 1908,
      "max": [
        55593.0
      ],
      "min": [
        54686.0
      ],
      "type": "SCALAR"
    },
    {
      "bufferView": 0,
      "byteOffset": 1159200,
      "componentType": 5125,
      "count": 104880,
      "max": [
        73331.0
      ],
      "min": [
        55594.0
      ],
      "type": "SCALAR"
    },
    {
      "bufferView": 0,
      "byteOffset": 1578720,
      "componentType": 5125,
      "count": 104880,
      "max": [
        91069.0
      ],
      "min": [
        73332.0
      ],
      "type": "SCALAR"
    },
    {
      "bufferView": 0,
      "byteOffset": 1998240,
      "componentType": 5125,
      "count": 18504,
      "max": [
        94737.0
      ],
      "min": [
        91070.0
      ],
      "type": "SCALAR"
    },
    {
      "bufferView": 0,
      "byteOffset": 2072256,
      "componentType": 5125,
      "count": 1926,
      "max": [
        95134.0
      ],
      "min": [
        94738.0
      ],
      "type": "SCALAR"
    },
    {
      "bufferView": 0,
      "byteOffset": 2079960,
      "componentType": 5125,
      "count": 1095,
      "max": [
        95674.0
      ],
      "min": [
        95135.0
      ],
      "type": "SCALAR"
    },
    {
      "bufferView": 0,
      "byteOffset": 2084340,
      "componentType": 5125,
      "count": 1080,
      "max": [
        96215.0
      ],
      "min": [
        95675.0
      ],
      "type": "SCALAR"
    },
    {
      "bufferView": 0,
      "byteOffset": 2088660,
      "componentType": 5125,
      "count": 2364,
      "max": [
        97428.0
      ],
      "min": [
        96216.0
      ],
      "type": "SCALAR"
    },
    {
      "bufferView": 0,
      "byteOffset": 2098116,
      "componentType": 5125,
      "count": 2418,
      "max": [
        98662.0
      ],
      "min": [
        97429.0
      ],
      "type": "SCALAR"
    },
    {
      "bufferView": 0,
      "byteOffset": 2107788,
      "componentType": 5125,
      "count": 1704,
      "max": [
        99509.0
      ],
      "min": [
        98663.0
      ],
      "type": "SCALAR"
    },
    {
      "bufferView": 0,
      "byteOffset": 2114604,
      "componentType": 5125,
      "count": 1773,
      "max": [
        100380.0
      ],
      "min": [
        99510.0
      ],
      "type": "SCALAR"
    },
    {
      "bufferView": 0,
      "byteOffset": 2121696,
      "componentType": 5125,
      "count": 1857,
      "max": [
        101273.0
      ],
      "min": [
        100381.0
      ],
      "type": "SCALAR"
    },
    {
      "bufferView": 0,
      "byteOffset": 2129124,
      "componentType": 5125,
      "count": 1767,
      "max": [
        102142.0
      ],
      "min": [
        101274.0
      ],
      "type": "SCALAR"
    },
    {
      "bufferView": 0,
      "byteOffset": 2136192,
      "componentType": 5125,
      "count": 22686,
      "max": [
        106035.0
      ],
      "min": [
        102143.0
      ],
      "type": "SCALAR"
    },
    {
      "bufferView": 0,
      "byteOffset": 2226936,
      "componentType": 5125,
      "count": 22686,
      "max": [
        109928.0
      ],
      "min": [
        106036.0
      ],
      "type": "SCALAR"
    },
    {
      "bufferView": 0,
      "byteOffset": 2317680,
      "componentType": 5125,
      "count": 7992,
      "max": [
        111517.0
      ],
      "min": [
        109929.0
      ],
      "type": "SCALAR"
    },
    {
      "bufferView": 0,
      "byteOffset": 2349648,
      "componentType": 5125,
      "count": 2916,
      "max": [
        112998.0
      ],
      "min": [
        111518.0
      ],
      "type": "SCALAR"
    },
    {
      "bufferView": 0,
      "byteOffset": 2361312,
      "componentType": 5125,
      "count": 2859,
      "max": [
        114458.0
      ],
      "min": [
        112999.0
      ],
      "type": "SCALAR"
    },
    {
      "bufferView": 0,
      "byteOffset": 2372748,
      "componentType": 5125,
      "count": 2817,
      "max": [
        115828.0
      ],
      "min": [
        114459.0
      ],
      "type": "SCALAR"
    },
    {
      "bufferView": 0,
      "byteOffset": 2384016,
      "componentType": 5125,
      "count": 2685,
      "max": [
        117157.0
      ],
      "min": [
        115829.0
      ],
      "type": "SCALAR"
    },
    {
      "bufferView": 0,
      "byteOffset": 2394756,
      "componentType": 5125,
      "count": 23178,
      "max": [
        121132.0
      ],
      "min": [
        117158.0
      ],
      "type": "SCALAR"
    },
    {
      "bufferView": 0,
      "byteOffset": 2487468,
      "componentType": 5125,
      "count": 23178,
      "max": [
        125107.0
      ],
      "min": [
        121133.0
      ],
      "type": "SCALAR"
    },
    {
      "bufferView": 0,
      "byteOffset": 2580180,
      "componentType": 5125,
      "count": 7992,
      "max": [
        126696.0
      ],
      "min": [
        125108.0
      ],
      "type": "SCALAR"
    },
    {
      "bufferView": 0,
      "byteOffset": 2612148,
      "componentType": 5125,
      "count": 1482,
      "max": [
        127012.0
      ],
      "min": [
        126697.0
      ],
      "type": "SCALAR"
    },
    {
      "bufferView": 0,
      "byteOffset": 2618076,
      "componentType": 5125,
      "count": 2895,
      "max": [
        128484.0
      ],
      "min": [
        127013.0
      ],
      "type": "SCALAR"
    },
    {
      "bufferView": 0,
      "byteOffset": 2629656,
      "componentType": 5125,
      "count": 2844,
      "max": [
        129942.0
      ],
      "min": [
        128485.0
      ],
      "type": "SCALAR"
    },
    {
      "bufferView": 0,
      "byteOffset": 2641032,
      "componentType": 5125,
      "count": 2793,
      "max": [
        131305.0
      ],
      "min": [
        129943.0
      ],
      "type": "SCALAR"
    },
    {
      "bufferView": 0,
      "byteOffset": 2652204,
      "componentType": 5125,
      "count": 2826,
      "max": [
        132683.0
      ],
      "min": [
        131306.0
      ],
      "type": "SCALAR"
    },
    {
      "bufferView": 0,
      "byteOffset": 2663508,
      "componentType": 5126,
      "count": 132684,
      "max": [
        0.302530437707901,
        1.638953447341919,
        0.15168914198875427
      ],
      "min": [
        -0.2993384301662445,
        0.9139889478683472,
        -0.15598738193511963
      ],
      "type": "VEC3"
    },
    {
      "bufferView": 0,
      "byteOffset": 4255716,
      "componentType": 5126,
      "count": 132684,
      "max": [
        1.0,
        0.9999602437019348,
        0.9999827742576599
      ],
      "min": [
        -0.9999886751174927,
        -0.9998130202293396,
        -0.9999827742576599
      ],
      "type": "VEC3"
    },
    {
      "bufferView": 0,
      "byteOffset": 5847924,
      "componentType": 5126,
      "count": 132684,
      "max": [
        20.868547439575195,
        10.625399589538574
      ],
      "min": [
        -11.107406616210938,
        -8.12490463256836
      ],
      "type": "VEC2"
    }
  ],
  "asset": {
    "generator": "CLO Standalone",
    "version": "2.0"
  },
  "bufferViews": [
    {
      "buffer": 0,
      "byteLength": 6909396
    }
  ],
  "buffers": [
    {
      "byteLength": 6909396,
      "uri": "t-shirt.bin"
    }
  ],
  "images": [
    {
      "uri": "FCL1-PSK002-00_DIFFUSE_867496.jpg"
    },
    {
      "uri": "FCL1-PSK002-00_SPECULAR_867500.jpg"
    },
    {
      "uri": "FCL1-PSK002-00_NORMAL_867498.jpg"
    },
    {
      "uri": "Basic_Offset.png"
    },
    {
      "uri": "FCL1-PSK002-00_DIFFUSE_1797657.jpg"
    },
    {
      "uri": "FCL1-PSK002-00_SPECULAR_1797661.jpg"
    },
    {
      "uri": "FCL1-PSK002-00_NORMAL_1797659.jpg"
    },
    {
      "uri": "ARCHANGEL-BRODEERAUS.png"
    }
  ],
  "materials": [
    {
      "doubleSided": true,
      "name": "trib_FRONT_5386",
      "normalTexture": {
        "index": 2
      },
      "pbrMetallicRoughness": {
        "baseColorFactor": [
          0.0,
          0.0,
          0.0,
          1.0
        ],
        "baseColorTexture": {
          "index": 0
        },
        "metallicFactor": 0.0,
        "metallicRoughnessTexture": {
          "index": 1
        }
      }
    },
    {
      "alphaMode": "BLEND",
      "name": "Material5459",
      "pbrMetallicRoughness": {
        "baseColorTexture": {
          "index": 3
        },
        "metallicFactor": 0.0,
        "roughnessFactor": 0.5
      }
    },
    {
      "doubleSided": true,
      "name": "tmain_FRONT_5375",
      "normalTexture": {
        "index": 6
      },
      "pbrMetallicRoughness": {
        "baseColorFactor": [
          0.0,
          0.0,
          0.0,
          1.0
        ],
        "baseColorTexture": {
          "index": 4
        },
        "metallicFactor": 0.0,
        "metallicRoughnessTexture": {
          "index": 5
        }
      }
    },
    {
      "alphaMode": "BLEND",
      "name": "Material1749961",
      "pbrMetallicRoughness": {
        "baseColorTexture": {
          "index": 3
        },
        "metallicFactor": 0.0,
        "roughnessFactor": 0.5
      }
    },
    {
      "alphaMode": "BLEND",
      "name": "Material1415221",
      "pbrMetallicRoughness": {
        "baseColorTexture": {
          "index": 3
        },
        "metallicFactor": 0.0,
        "roughnessFactor": 0.5
      }
    },
    {
      "alphaMode": "BLEND",
      "name": "PT_FABRIC_FRONT_9066",
      "pbrMetallicRoughness": {
        "baseColorTexture": {
          "index": 7
        },
        "metallicFactor": 0.0,
        "roughnessFactor": 0.5
      }
    },
    {
      "alphaMode": "BLEND",
      "name": "PT_FABRIC_FRONT_13957",
      "pbrMetallicRoughness": {
        "baseColorTexture": {
          "index": 7
        },
        "metallicFactor": 0.0,
        "roughnessFactor": 0.5
      }
    }
  ],
  "meshes": [
    {
      "name": "Cloth_mesh",
      "primitives": [
        {
          "attributes": {
            "NORMAL": 47,
            "POSITION": 46,
            "TEXCOORD_0": 48
          },
          "indices": 0,
          "material": 0
        },
        {
          "attributes": {
            "NORMAL": 47,
            "POSITION": 46,
            "TEXCOORD_0": 48
          },
          "indices": 1,
          "material": 0
        },
        {
          "attributes": {
            "NORMAL": 47,
            "POSITION": 46,
            "TEXCOORD_0": 48
          },
          "indices": 2,
          "material": 0
        },
        {
          "attributes": {
            "NORMAL": 47,
            "POSITION": 46,
            "TEXCOORD_0": 48
          },
          "indices": 3,
          "material": 1
        },
        {
          "attributes": {
            "NORMAL": 47,
            "POSITION": 46,
            "TEXCOORD_0": 48
          },
          "indices": 4,
          "material": 0
        },
        {
          "attributes": {
            "NORMAL": 47,
            "POSITION": 46,
            "TEXCOORD_0": 48
          },
          "indices": 5,
          "material": 0
        },
        {
          "attributes": {
            "NORMAL": 47,
            "POSITION": 46,
            "TEXCOORD_0": 48
          },
          "indices": 6,
          "material": 0
        },
        {
          "attributes": {
            "NORMAL": 47,
            "POSITION": 46,
            "TEXCOORD_0": 48
          },
          "indices": 7,
          "material": 1
        },
        {
          "attributes": {
            "NORMAL": 47,
            "POSITION": 46,
            "TEXCOORD_0": 48
          },
          "indices": 8,
          "material": 2
        },
        {
          "attributes": {
            "NORMAL": 47,
            "POSITION": 46,
            "TEXCOORD_0": 48
          },
          "indices": 9,
          "material": 2
        },
        {
          "attributes": {
            "NORMAL": 47,
            "POSITION": 46,
            "TEXCOORD_0": 48
          },
          "indices": 10,
          "material": 2
        },
        {
          "attributes": {
            "NORMAL": 47,
            "POSITION": 46,
            "TEXCOORD_0": 48
          },
          "indices": 11,
          "material": 3
        },
        {
          "attributes": {
            "NORMAL": 47,
            "POSITION": 46,
            "TEXCOORD_0": 48
          },
          "indices": 12,
          "material": 3
        },
        {
          "attributes": {
            "NORMAL": 47,
            "POSITION": 46,
            "TEXCOORD_0": 48
          },
          "indices": 13,
          "material": 1
        },
        {
          "attributes": {
            "NORMAL": 47,
            "POSITION": 46,
            "TEXCOORD_0": 48
          },
          "indices": 14,
          "material": 1
        },
        {
          "attributes": {
            "NORMAL": 47,
            "POSITION": 46,
            "TEXCOORD_0": 48
          },
          "indices": 15,
          "material": 4
        },
        {
          "attributes": {
            "NORMAL": 47,
            "POSITION": 46,
            "TEXCOORD_0": 48
          },
          "indices": 16,
          "material": 4
        },
        {
          "attributes": {
            "NORMAL": 47,
            "POSITION": 46,
            "TEXCOORD_0": 48
          },
          "indices": 17,
          "material": 4
        },
        {
          "attributes": {
            "NORMAL": 47,
            "POSITION": 46,
            "TEXCOORD_0": 48
          },
          "indices": 18,
          "material": 4
        },
        {
          "attributes": {
            "NORMAL": 47,
            "POSITION": 46,
            "TEXCOORD_0": 48
          },
          "indices": 19,
          "material": 2
        },
        {
          "attributes": {
            "NORMAL": 47,
            "POSITION": 46,
            "TEXCOORD_0": 48
          },
          "indices": 20,
          "material": 2
        },
        {
          "attributes": {
            "NORMAL": 47,
            "POSITION": 46,
            "TEXCOORD_0": 48
          },
          "indices": 21,
          "material": 2
        },
        {
          "attributes": {
            "NORMAL": 47,
            "POSITION": 46,
            "TEXCOORD_0": 48
          },
          "indices": 22,
          "material": 5
        },
        {
          "attributes": {
            "NORMAL": 47,
            "POSITION": 46,
            "TEXCOORD_0": 48
          },
          "indices": 23,
          "material": 3
        },
        {
          "attributes": {
            "NORMAL": 47,
            "POSITION": 46,
            "TEXCOORD_0": 48
          },
          "indices": 24,
          "material": 3
        },
        {
          "attributes": {
            "NORMAL": 47,
            "POSITION": 46,
            "TEXCOORD_0": 48
          },
          "indices": 25,
          "material": 1
        },
        {
          "attributes": {
            "NORMAL": 47,
            "POSITION": 46,
            "TEXCOORD_0": 48
          },
          "indices": 26,
          "material": 1
        },
        {
          "attributes": {
            "NORMAL": 47,
            "POSITION": 46,
            "TEXCOORD_0": 48
          },
          "indices": 27,
          "material": 4
        },
        {
          "attributes": {
            "NORMAL": 47,
            "POSITION": 46,
            "TEXCOORD_0": 48
          },
          "indices": 28,
          "material": 4
        },
        {
          "attributes": {
            "NORMAL": 47,
            "POSITION": 46,
            "TEXCOORD_0": 48
          },
          "indices": 29,
          "material": 4
        },
        {
          "attributes": {
            "NORMAL": 47,
            "POSITION": 46,
            "TEXCOORD_0": 48
          },
          "indices": 30,
          "material": 4
        },
        {
          "attributes": {
            "NORMAL": 47,
            "POSITION": 46,
            "TEXCOORD_0": 48
          },
          "indices": 31,
          "material": 2
        },
        {
          "attributes": {
            "NORMAL": 47,
            "POSITION": 46,
            "TEXCOORD_0": 48
          },
          "indices": 32,
          "material": 2
        },
        {
          "attributes": {
            "NORMAL": 47,
            "POSITION": 46,
            "TEXCOORD_0": 48
          },
          "indices": 33,
          "material": 2
        },
        {
          "attributes": {
            "NORMAL": 47,
            "POSITION": 46,
            "TEXCOORD_0": 48
          },
          "indices": 34,
          "material": 1
        },
        {
          "attributes": {
            "NORMAL": 47,
            "POSITION": 46,
            "TEXCOORD_0": 48
          },
          "indices": 35,
          "material": 1
        },
        {
          "attributes": {
            "NORMAL": 47,
            "POSITION": 46,
            "TEXCOORD_0": 48
          },
          "indices": 36,
          "material": 4
        },
        {
          "attributes": {
            "NORMAL": 47,
            "POSITION": 46,
            "TEXCOORD_0": 48
          },
          "indices": 37,
          "material": 4
        },
        {
          "attributes": {
            "NORMAL": 47,
            "POSITION": 46,
            "TEXCOORD_0": 48
          },
          "indices": 38,
          "material": 2
        },
        {
          "attributes": {
            "NORMAL": 47,
            "POSITION": 46,
            "TEXCOORD_0": 48
          },
          "indices": 39,
          "material": 2
        },
        {
          "attributes": {
            "NORMAL": 47,
            "POSITION": 46,
            "TEXCOORD_0": 48
          },
          "indices": 40,
          "material": 2
        },
        {
          "attributes": {
            "NORMAL": 47,
            "POSITION": 46,
            "TEXCOORD_0": 48
          },
          "indices": 41,
          "material": 6
        },
        {
          "attributes": {
            "NORMAL": 47,
            "POSITION": 46,
            "TEXCOORD_0": 48
          },
          "indices": 42,
          "material": 1
        },
        {
          "attributes": {
            "NORMAL": 47,
            "POSITION": 46,
            "TEXCOORD_0": 48
          },
          "indices": 43,
          "material": 1
        },
        {
          "attributes": {
            "NORMAL": 47,
            "POSITION": 46,
            "TEXCOORD_0": 48
          },
          "indices": 44,
          "material": 4
        },
        {
          "attributes": {
            "NORMAL": 47,
            "POSITION": 46,
            "TEXCOORD_0": 48
          },
          "indices": 45,
          "material": 4
        }
      ]
    }
  ],
  "nodes": [
    {
      "children": [
        1
      ],
      "name": "t-shirt_Scene_Node"
    },
    {
      "mesh": 0,
      "name": "Cloth"
    }
  ],
  "samplers": [
    {
      "magFilter": 9729,
      "minFilter": 9987
    }
  ],
  "scene": 0,
  "scenes": [
    {
      "nodes": [
        0
      ]
    }
  ],
  "textures": [
    {
      "name": "Texture",
      "sampler": 0,
      "source": 0
    },
    {
      "name": "Texture",
      "sampler": 0,
      "source": 1
    },
    {
      "name": "Texture",
      "sampler": 0,
      "source": 2
    },
    {
      "name": "Texture",
      "sampler": 0,
      "source": 3
    },
    {
      "name": "Texture",
      "sampler": 0,
      "source": 4
    },
    {
      "name": "Texture",
      "sampler": 0,
      "source": 5
    },
    {
      "name": "Texture",
      "sampler": 0,
      "source": 6
    },
    {
      "name": "Texture",
      "sampler": 0,
      "source": 7
    }
  ]
}